<svg width="40" height="41" viewBox="0 0 40 41" fill="none" xmlns="http://www.w3.org/2000/svg">
<rect y="0.5" width="40" height="40" rx="20" fill="#F5F5F5"/>
<path d="M25.7541 22.4999C26.9961 22.4999 28.0029 23.5068 28.0029 24.7488V25.6673C28.0029 26.2406 27.8237 26.7997 27.4903 27.2662C25.9445 29.4294 23.4202 30.5011 19.9999 30.5011C16.5789 30.5011 14.0559 29.4289 12.5138 27.2646C12.1818 26.7987 12.0034 26.2409 12.0034 25.6688V24.7488C12.0034 23.5068 13.0103 22.4999 14.2523 22.4999H25.7541ZM19.9999 10.5046C22.7613 10.5046 24.9999 12.7432 24.9999 15.5046C24.9999 18.2661 22.7613 20.5046 19.9999 20.5046C17.2385 20.5046 14.9999 18.2661 14.9999 15.5046C14.9999 12.7432 17.2385 10.5046 19.9999 10.5046Z" fill="#44403C"/>
</svg>
