<svg width="40" height="41" viewBox="0 0 40 41" fill="none" xmlns="http://www.w3.org/2000/svg">
<path d="M27.8452 11.1728L21.1785 4.33549C21.0237 4.17631 20.8398 4.05001 20.6373 3.96384C20.4348 3.87767 20.2177 3.83331 19.9985 3.83331C19.7793 3.83331 19.5622 3.87767 19.3597 3.96384C19.1572 4.05001 18.9733 4.17631 18.8185 4.33549L12.1518 11.1728C11.8393 11.4938 11.6639 11.9289 11.6642 12.3825C11.6645 12.8361 11.8405 13.271 12.1535 13.5915C12.4665 13.912 12.8907 14.0919 13.333 14.0916C13.7753 14.0913 14.1993 13.9108 14.5118 13.5898L18.3335 9.67032V24.3467C18.3335 24.8 18.5091 25.2348 18.8217 25.5553C19.1342 25.8759 19.5581 26.056 20.0002 26.056C20.4422 26.056 20.8661 25.8759 21.1787 25.5553C21.4912 25.2348 21.6668 24.8 21.6668 24.3467V9.67032L25.4885 13.5898C25.8028 13.9012 26.2238 14.0735 26.6608 14.0696C27.0978 14.0657 27.5158 13.8859 27.8249 13.569C28.1339 13.2521 28.3092 12.8234 28.313 12.3752C28.3168 11.927 28.1488 11.4952 27.8452 11.1728Z" fill="#71717A"/>
<path d="M33.3335 23.492H25.0002V24.3467C25.0002 25.7067 24.4734 27.011 23.5357 27.9727C22.598 28.9344 21.3262 29.4747 20.0002 29.4747C18.6741 29.4747 17.4023 28.9344 16.4646 27.9727C15.5269 27.011 15.0002 25.7067 15.0002 24.3467V23.492H6.66683C5.78277 23.492 4.93493 23.8522 4.30981 24.4933C3.68469 25.1344 3.3335 26.004 3.3335 26.9107V33.748C3.3335 34.6547 3.68469 35.5242 4.30981 36.1653C4.93493 36.8065 5.78277 37.1666 6.66683 37.1666H33.3335C34.2176 37.1666 35.0654 36.8065 35.6905 36.1653C36.3156 35.5242 36.6668 34.6547 36.6668 33.748V26.9107C36.6668 26.004 36.3156 25.1344 35.6905 24.4933C35.0654 23.8522 34.2176 23.492 33.3335 23.492ZM29.1668 33.748C28.6724 33.748 28.189 33.5976 27.7779 33.3159C27.3668 33.0341 27.0464 32.6337 26.8571 32.1652C26.6679 31.6967 26.6184 31.1811 26.7149 30.6838C26.8113 30.1864 27.0494 29.7295 27.3991 29.371C27.7487 29.0124 28.1942 28.7682 28.6791 28.6693C29.1641 28.5703 29.6667 28.6211 30.1235 28.8152C30.5804 29.0092 30.9708 29.3379 31.2455 29.7595C31.5202 30.1812 31.6668 30.6769 31.6668 31.184C31.6668 31.864 31.4034 32.5162 30.9346 32.997C30.4658 33.4778 29.8299 33.748 29.1668 33.748Z" fill="#71717A"/>
</svg>
